<?xml version="1.0" encoding="UTF-8" standalone="no"?>
<!DOCTYPE svg PUBLIC "-//W3C//DTD SVG 1.1//EN"
 "http://www.w3.org/Graphics/SVG/1.1/DTD/svg11.dtd">
<!-- Generated by graphviz version 2.38.0 (20140413.2041)
 -->
<!-- Title: java.se Pages: 1 -->
<svg width="1943pt" height="385pt"
 viewBox="0.00 0.00 1942.50 385.00" xmlns="http://www.w3.org/2000/svg" xmlns:xlink="http://www.w3.org/1999/xlink">
<g id="graph0" class="graph" transform="scale(1 1) rotate(0) translate(4 381)">
<title>java.se</title>
<polygon fill="white" stroke="none" points="-4,4 -4,-381 1938.5,-381 1938.5,4 -4,4"/>
<!-- java.logging -->
<g id="node1" class="node"><title>java.logging</title>
<text text-anchor="middle" x="341" y="-101.4" font-family="DejaVuSans" font-size="12.00" fill="#e76f00">java.logging</text>
</g>
<!-- java.base -->
<g id="node10" class="node"><title>java.base</title>
<text text-anchor="middle" x="596" y="-17.4" font-family="DejaVuSans" font-size="12.00" fill="#e76f00">java.base</text>
</g>
<!-- java.logging&#45;&gt;java.base -->
<g id="edge6" class="edge"><title>java.logging&#45;&gt;java.base</title>
<path fill="none" stroke="#999999" stroke-width="2" d="M388.068,-88.3644C432.982,-73.9216 500.402,-52.2414 546.201,-37.5138"/>
<polygon fill="#999999" stroke="#999999" stroke-width="2" points="555.916,-34.3898 547.773,-41.7352 551.309,-36.3965 546.549,-37.9272 546.396,-37.4512 546.243,-36.9752 551.003,-35.4445 545.018,-33.1672 555.916,-34.3898 555.916,-34.3898"/>
</g>
<!-- java.scripting -->
<g id="node2" class="node"><title>java.scripting</title>
<text text-anchor="middle" x="474" y="-101.4" font-family="DejaVuSans" font-size="12.00" fill="#e76f00">java.scripting</text>
</g>
<!-- java.scripting&#45;&gt;java.base -->
<g id="edge14" class="edge"><title>java.scripting&#45;&gt;java.base</title>
<path fill="none" stroke="#999999" stroke-width="2" d="M503.222,-83.859C519.7,-72.7837 540.47,-58.8235 558.178,-46.9211"/>
<polygon fill="#999999" stroke="#999999" stroke-width="2" points="566.594,-41.265 560.804,-50.5782 562.723,-44.4692 558.573,-47.2584 558.294,-46.8434 558.015,-46.4284 562.165,-43.6392 555.784,-43.1086 566.594,-41.265 566.594,-41.265"/>
</g>
<!-- java.xml -->
<g id="node3" class="node"><title>java.xml</title>
<text text-anchor="middle" x="596" y="-101.4" font-family="DejaVuSans" font-size="12.00" fill="#e76f00">java.xml</text>
</g>
<!-- java.xml&#45;&gt;java.base -->
<g id="edge34" class="edge"><title>java.xml&#45;&gt;java.base</title>
<path fill="none" stroke="#999999" stroke-width="2" d="M596,-83.6501C596,-73.9808 596,-62.1502 596,-51.4157"/>
<polygon fill="#999999" stroke="#999999" stroke-width="2" points="596,-41.1671 600.5,-51.1671 596.5,-46.1671 596.5,-51.1671 596,-51.1671 595.5,-51.1671 595.5,-46.1671 591.5,-51.1672 596,-41.1671 596,-41.1671"/>
</g>
<!-- java.sql -->
<g id="node4" class="node"><title>java.sql</title>
<text text-anchor="middle" x="596" y="-185.4" font-family="DejaVuSans" font-size="12.00" fill="#e76f00">java.sql</text>
</g>
<!-- java.sql&#45;&gt;java.logging -->
<g id="edge28" class="edge"><title>java.sql&#45;&gt;java.logging</title>
<path fill="none" stroke="#999999" stroke-width="2" d="M560.811,-176.184C518.798,-162.674 447.963,-139.896 398.081,-123.855"/>
<polygon fill="#999999" stroke="#999999" stroke-width="2" points="388.399,-120.742 399.296,-119.519 393.312,-121.797 398.072,-123.327 397.918,-123.803 397.765,-124.279 393.005,-122.749 396.541,-128.087 388.399,-120.742 388.399,-120.742"/>
</g>
<!-- java.sql&#45;&gt;java.xml -->
<g id="edge30" class="edge"><title>java.sql&#45;&gt;java.xml</title>
<path fill="none" stroke="#999999" stroke-width="2" d="M596,-167.65C596,-157.981 596,-146.15 596,-135.416"/>
<polygon fill="#999999" stroke="#999999" stroke-width="2" points="596,-125.167 600.5,-135.167 596.5,-130.167 596.5,-135.167 596,-135.167 595.5,-135.167 595.5,-130.167 591.5,-135.167 596,-125.167 596,-125.167"/>
</g>
<!-- java.transaction.xa -->
<g id="node5" class="node"><title>java.transaction.xa</title>
<text text-anchor="middle" x="194" y="-101.4" font-family="DejaVuSans" font-size="12.00" fill="#e76f00">java.transaction.xa</text>
</g>
<!-- java.sql&#45;&gt;java.transaction.xa -->
<g id="edge29" class="edge"><title>java.sql&#45;&gt;java.transaction.xa</title>
<path fill="none" stroke="#999999" stroke-width="2" d="M560.864,-181.12C501.858,-170.298 379.179,-147.335 276,-125 273.497,-124.458 270.953,-123.899 268.386,-123.328"/>
<polygon fill="#999999" stroke="#999999" stroke-width="2" points="258.402,-121.076 269.147,-118.887 263.389,-121.689 268.267,-122.789 268.157,-123.277 268.046,-123.764 263.169,-122.664 267.166,-127.666 258.402,-121.076 258.402,-121.076"/>
</g>
<!-- java.transaction.xa&#45;&gt;java.base -->
<g id="edge33" class="edge"><title>java.transaction.xa&#45;&gt;java.base</title>
<path fill="none" stroke="#999999" stroke-width="2" d="M258.402,-87.9242C264.344,-86.5658 270.279,-85.2383 276,-84 371.118,-63.4103 482.807,-42.2864 545.908,-30.6327"/>
<polygon fill="#999999" stroke="#999999" stroke-width="2" points="555.983,-28.7762 546.964,-35.0139 551.156,-30.174 546.239,-31.0801 546.149,-30.5884 546.058,-30.0967 550.975,-29.1906 545.333,-26.1629 555.983,-28.7762 555.983,-28.7762"/>
</g>
<!-- java.compiler -->
<g id="node6" class="node"><title>java.compiler</title>
<text text-anchor="middle" x="997" y="-185.4" font-family="DejaVuSans" font-size="12.00" fill="#e76f00">java.compiler</text>
</g>
<!-- java.compiler&#45;&gt;java.base -->
<g id="edge1" class="edge"><title>java.compiler&#45;&gt;java.base</title>
<path fill="none" stroke="#999999" stroke-width="2" d="M978.929,-167.89C956.086,-144.323 914.471,-105.299 871,-84 797.738,-48.1055 703.34,-32.4591 646.359,-25.9092"/>
<polygon fill="#999999" stroke="#999999" stroke-width="2" points="636.169,-24.7893 646.601,-21.4087 641.194,-24.8385 646.164,-25.3848 646.109,-25.8818 646.054,-26.3788 641.084,-25.8325 645.617,-30.3549 636.169,-24.7893 636.169,-24.7893"/>
</g>
<!-- java.instrument -->
<g id="node7" class="node"><title>java.instrument</title>
<text text-anchor="middle" x="1138" y="-185.4" font-family="DejaVuSans" font-size="12.00" fill="#e76f00">java.instrument</text>
</g>
<!-- java.instrument&#45;&gt;java.base -->
<g id="edge5" class="edge"><title>java.instrument&#45;&gt;java.base</title>
<path fill="none" stroke="#999999" stroke-width="2" d="M1105.54,-167.902C1065.44,-144.533 994.473,-105.891 929,-84 831.698,-51.4665 712.405,-34.2521 646.255,-26.5843"/>
<polygon fill="#999999" stroke="#999999" stroke-width="2" points="636.106,-25.4348 646.549,-22.0889 641.13,-25.5007 646.099,-26.0635 646.042,-26.5604 645.986,-27.0572 641.018,-26.4944 645.536,-31.0318 636.106,-25.4348 636.106,-25.4348"/>
</g>
<!-- java.desktop -->
<g id="node8" class="node"><title>java.desktop</title>
<text text-anchor="middle" x="863" y="-185.4" font-family="DejaVuSans" font-size="12.00" fill="#e76f00">java.desktop</text>
</g>
<!-- java.desktop&#45;&gt;java.xml -->
<g id="edge3" class="edge"><title>java.desktop&#45;&gt;java.xml</title>
<path fill="none" stroke="#999999" stroke-width="2" d="M814.957,-172.745C765.936,-157.69 690.394,-134.49 642.091,-119.655"/>
<polygon fill="#999999" stroke="#999999" stroke-width="2" points="632.514,-116.714 643.394,-115.348 637.44,-117.704 642.22,-119.172 642.073,-119.65 641.926,-120.128 637.146,-118.66 640.752,-123.952 632.514,-116.714 632.514,-116.714"/>
</g>
<!-- java.datatransfer -->
<g id="node11" class="node"><title>java.datatransfer</title>
<text text-anchor="middle" x="795" y="-101.4" font-family="DejaVuSans" font-size="12.00" fill="#e76f00">java.datatransfer</text>
</g>
<!-- java.desktop&#45;&gt;java.datatransfer -->
<g id="edge4" class="edge"><title>java.desktop&#45;&gt;java.datatransfer</title>
<path fill="none" stroke="#999999" stroke-width="2" d="M846.539,-167.65C837.936,-157.276 827.27,-144.413 817.876,-133.086"/>
<polygon fill="#999999" stroke="#999999" stroke-width="2" points="811.309,-125.167 821.157,-129.992 814.886,-128.697 818.078,-132.546 817.693,-132.865 817.308,-133.184 814.116,-129.335 814.229,-135.737 811.309,-125.167 811.309,-125.167"/>
</g>
<!-- java.management -->
<g id="node9" class="node"><title>java.management</title>
<text text-anchor="middle" x="1399" y="-185.4" font-family="DejaVuSans" font-size="12.00" fill="#e76f00">java.management</text>
</g>
<!-- java.management&#45;&gt;java.base -->
<g id="edge7" class="edge"><title>java.management&#45;&gt;java.base</title>
<path fill="none" stroke="#999999" stroke-width="2" d="M1350.95,-167.951C1291.23,-144.446 1185.75,-105.483 1092,-84 931.483,-47.2182 736.441,-30.6264 646.226,-24.5015"/>
<polygon fill="#999999" stroke="#999999" stroke-width="2" points="636.012,-23.8226 646.289,-19.9958 641.034,-23.6553 646.023,-23.987 645.99,-24.4859 645.957,-24.9848 640.968,-24.6531 645.692,-28.9759 636.012,-23.8226 636.012,-23.8226"/>
</g>
<!-- java.datatransfer&#45;&gt;java.base -->
<g id="edge2" class="edge"><title>java.datatransfer&#45;&gt;java.base</title>
<path fill="none" stroke="#999999" stroke-width="2" d="M747.587,-83.9631C716.749,-71.2559 676.614,-54.7179 645.389,-41.8514"/>
<polygon fill="#999999" stroke="#999999" stroke-width="2" points="636.005,-37.9845 646.965,-37.6338 640.818,-39.4272 645.441,-41.3321 645.251,-41.7944 645.06,-42.2567 640.438,-40.3517 643.536,-45.955 636.005,-37.9845 636.005,-37.9845"/>
</g>
<!-- java.management.rmi -->
<g id="node12" class="node"><title>java.management.rmi</title>
<text text-anchor="middle" x="1265" y="-269.4" font-family="DejaVuSans" font-size="12.00" fill="#e76f00">java.management.rmi</text>
</g>
<!-- java.management.rmi&#45;&gt;java.management -->
<g id="edge9" class="edge"><title>java.management.rmi&#45;&gt;java.management</title>
<path fill="none" stroke="#999999" stroke-width="2" d="M1297.1,-251.859C1315.36,-240.683 1338.42,-226.569 1357.99,-214.597"/>
<polygon fill="#999999" stroke="#999999" stroke-width="2" points="1366.7,-209.265 1360.52,-218.323 1362.7,-212.301 1358.43,-214.911 1358.17,-214.485 1357.91,-214.058 1362.18,-211.448 1355.82,-210.646 1366.7,-209.265 1366.7,-209.265"/>
</g>
<!-- java.rmi -->
<g id="node16" class="node"><title>java.rmi</title>
<text text-anchor="middle" x="1265" y="-185.4" font-family="DejaVuSans" font-size="12.00" fill="#e76f00">java.rmi</text>
</g>
<!-- java.management.rmi&#45;&gt;java.rmi -->
<g id="edge8" class="edge"><title>java.management.rmi&#45;&gt;java.rmi</title>
<path fill="none" stroke="#999999" stroke-width="2" d="M1265,-251.65C1265,-241.981 1265,-230.15 1265,-219.416"/>
<polygon fill="#999999" stroke="#999999" stroke-width="2" points="1265,-209.167 1269.5,-219.167 1265.5,-214.167 1265.5,-219.167 1265,-219.167 1264.5,-219.167 1264.5,-214.167 1260.5,-219.167 1265,-209.167 1265,-209.167"/>
</g>
<!-- java.naming -->
<g id="node13" class="node"><title>java.naming</title>
<text text-anchor="middle" x="47" y="-101.4" font-family="DejaVuSans" font-size="12.00" fill="#e76f00">java.naming</text>
</g>
<!-- java.naming&#45;&gt;java.base -->
<g id="edge10" class="edge"><title>java.naming&#45;&gt;java.base</title>
<path fill="none" stroke="#999999" stroke-width="2" d="M94.3379,-88.3258C100.248,-86.7196 106.239,-85.2276 112,-84 268.429,-50.6682 457.338,-32.5091 545.764,-25.2705"/>
<polygon fill="#999999" stroke="#999999" stroke-width="2" points="555.787,-24.4618 546.181,-29.7516 550.843,-25.3624 545.859,-25.7646 545.819,-25.2662 545.779,-24.7678 550.763,-24.3656 545.457,-20.7808 555.787,-24.4618 555.787,-24.4618"/>
</g>
<!-- java.net.http -->
<g id="node14" class="node"><title>java.net.http</title>
<text text-anchor="middle" x="1544" y="-185.4" font-family="DejaVuSans" font-size="12.00" fill="#e76f00">java.net.http</text>
</g>
<!-- java.net.http&#45;&gt;java.base -->
<g id="edge11" class="edge"><title>java.net.http&#45;&gt;java.base</title>
<path fill="none" stroke="#999999" stroke-width="2" d="M1497.3,-170.942C1430.04,-147.776 1301.61,-106.064 1189,-84 990.356,-45.0807 749.206,-29.1525 646.373,-23.7994"/>
<polygon fill="#999999" stroke="#999999" stroke-width="2" points="636.274,-23.2848 646.49,-19.2997 641.293,-23.04 646.287,-23.2945 646.261,-23.7939 646.236,-24.2932 641.242,-24.0387 646.032,-28.288 636.274,-23.2848 636.274,-23.2848"/>
</g>
<!-- java.prefs -->
<g id="node15" class="node"><title>java.prefs</title>
<text text-anchor="middle" x="1611" y="-101.4" font-family="DejaVuSans" font-size="12.00" fill="#e76f00">java.prefs</text>
</g>
<!-- java.prefs&#45;&gt;java.base -->
<g id="edge12" class="edge"><title>java.prefs&#45;&gt;java.base</title>
<path fill="none" stroke="#999999" stroke-width="2" d="M1570.99,-94.0409C1554.11,-90.3748 1534.18,-86.4726 1516,-84 1186.31,-39.1721 785.559,-25.9374 646.433,-22.5442"/>
<polygon fill="#999999" stroke="#999999" stroke-width="2" points="636.098,-22.2986 646.202,-18.0375 641.108,-21.9176 646.107,-22.0364 646.095,-22.5362 646.083,-23.0361 641.084,-22.9173 645.988,-27.035 636.098,-22.2986 636.098,-22.2986"/>
</g>
<!-- java.rmi&#45;&gt;java.base -->
<g id="edge13" class="edge"><title>java.rmi&#45;&gt;java.base</title>
<path fill="none" stroke="#999999" stroke-width="2" d="M1229.29,-170.259C1179.99,-147.16 1087.75,-106.479 1005,-84 878.289,-49.5799 724.003,-32.4487 646.124,-25.4656"/>
<polygon fill="#999999" stroke="#999999" stroke-width="2" points="636.106,-24.5858 646.462,-20.978 641.131,-24.5252 646.112,-24.9627 646.068,-25.4608 646.024,-25.9588 641.043,-25.5214 645.674,-29.9435 636.106,-24.5858 636.106,-24.5858"/>
</g>
<!-- java.se -->
<g id="node17" class="node"><title>java.se</title>
<text text-anchor="middle" x="596" y="-353.4" font-family="DejaVuSans" font-size="12.00" fill="#e76f00">java.se</text>
</g>
<!-- java.se&#45;&gt;java.scripting -->
<g id="edge18" class="edge"><title>java.se&#45;&gt;java.scripting</title>
<path fill="none" stroke="#999999" stroke-width="2" d="M629.521,-335.815C644.233,-325.189 659.963,-310.62 668,-293 682.133,-262.017 649.333,-168.376 649,-168 640.868,-158.823 580.679,-138.504 533.129,-123.513"/>
<polygon fill="#999999" stroke="#999999" stroke-width="2" points="523.502,-120.496 534.39,-119.193 528.423,-121.514 533.194,-123.01 533.044,-123.487 532.895,-123.964 528.124,-122.469 531.699,-127.781 523.502,-120.496 523.502,-120.496"/>
</g>
<!-- java.se&#45;&gt;java.compiler -->
<g id="edge17" class="edge"><title>java.se&#45;&gt;java.compiler</title>
<path fill="none" stroke="#999999" stroke-width="2" d="M629.738,-352.06C702.355,-344.168 870.791,-323.094 919,-293 947.813,-275.013 969.768,-242.249 982.934,-218.391"/>
<polygon fill="#999999" stroke="#999999" stroke-width="2" points="987.708,-209.415 986.984,-220.357 985.801,-214.065 983.453,-218.479 983.011,-218.244 982.57,-218.009 984.918,-213.595 979.038,-216.131 987.708,-209.415 987.708,-209.415"/>
</g>
<!-- java.se&#45;&gt;java.instrument -->
<g id="edge25" class="edge"><title>java.se&#45;&gt;java.instrument</title>
<path fill="none" stroke="#999999" stroke-width="2" d="M629.683,-354.098C696.31,-350.413 848.795,-337.416 968,-293 1018.97,-274.007 1071.55,-239.232 1104.47,-215.269"/>
<polygon fill="#999999" stroke="#999999" stroke-width="2" points="1112.81,-209.122 1107.43,-218.677 1109.08,-212.491 1105.06,-215.457 1104.76,-215.054 1104.46,-214.652 1108.49,-211.686 1102.09,-211.432 1112.81,-209.122 1112.81,-209.122"/>
</g>
<!-- java.se&#45;&gt;java.desktop -->
<g id="edge16" class="edge"><title>java.se&#45;&gt;java.desktop</title>
<path fill="none" stroke="#999999" stroke-width="2" d="M629.504,-353.4C698.793,-348.284 854.049,-332.57 886,-293 903.075,-271.854 892.801,-240.669 881.047,-218.06"/>
<polygon fill="#999999" stroke="#999999" stroke-width="2" points="876.172,-209.253 884.951,-215.823 879.03,-213.385 881.452,-217.76 881.014,-218.002 880.577,-218.244 878.155,-213.87 877.077,-220.181 876.172,-209.253 876.172,-209.253"/>
</g>
<!-- java.se&#45;&gt;java.management.rmi -->
<g id="edge24" class="edge"><title>java.se&#45;&gt;java.management.rmi</title>
<path fill="none" stroke="#999999" stroke-width="2" d="M629.661,-351.947C714.324,-342.93 942.943,-318.092 1133,-293 1149.26,-290.853 1166.62,-288.402 1183.24,-285.979"/>
<polygon fill="#999999" stroke="#999999" stroke-width="2" points="1193.47,-284.478 1184.23,-290.383 1188.59,-285.699 1183.65,-286.425 1183.57,-285.93 1183.5,-285.436 1188.45,-284.709 1182.92,-281.478 1193.47,-284.478 1193.47,-284.478"/>
</g>
<!-- java.se&#45;&gt;java.net.http -->
<g id="edge22" class="edge"><title>java.se&#45;&gt;java.net.http</title>
<path fill="none" stroke="#999999" stroke-width="2" d="M629.803,-354.569C758.19,-350.749 1215.31,-334.466 1354,-293 1411.81,-275.717 1471.87,-239.376 1508.6,-214.697"/>
<polygon fill="#999999" stroke="#999999" stroke-width="2" points="1516.97,-209.002 1511.24,-218.348 1513.12,-212.228 1508.99,-215.04 1508.71,-214.627 1508.43,-214.214 1512.56,-211.401 1506.18,-210.906 1516.97,-209.002 1516.97,-209.002"/>
</g>
<!-- java.se&#45;&gt;java.prefs -->
<g id="edge20" class="edge"><title>java.se&#45;&gt;java.prefs</title>
<path fill="none" stroke="#999999" stroke-width="2" d="M629.719,-354.586C765.606,-350.652 1273.15,-333.499 1428,-293 1513.41,-270.663 1559.5,-282.769 1608,-209 1622.24,-187.345 1621.39,-157.255 1617.93,-135.099"/>
<polygon fill="#999999" stroke="#999999" stroke-width="2" points="1616.14,-125.235 1622.36,-134.271 1617.53,-130.065 1618.42,-134.985 1617.93,-135.074 1617.44,-135.164 1616.54,-130.244 1613.5,-135.877 1616.14,-125.235 1616.14,-125.235"/>
</g>
<!-- java.security.jgss -->
<g id="node18" class="node"><title>java.security.jgss</title>
<text text-anchor="middle" x="1720" y="-269.4" font-family="DejaVuSans" font-size="12.00" fill="#e76f00">java.security.jgss</text>
</g>
<!-- java.se&#45;&gt;java.security.jgss -->
<g id="edge15" class="edge"><title>java.se&#45;&gt;java.security.jgss</title>
<path fill="none" stroke="#999999" stroke-width="2" d="M629.768,-355.426C759.943,-354.726 1241.45,-348.317 1633,-293 1638.69,-292.195 1644.57,-291.214 1650.45,-290.123"/>
<polygon fill="#999999" stroke="#999999" stroke-width="2" points="1660.33,-288.197 1651.37,-294.528 1655.52,-289.645 1650.61,-290.602 1650.51,-290.111 1650.42,-289.621 1655.32,-288.663 1649.65,-285.695 1660.33,-288.197 1660.33,-288.197"/>
</g>
<!-- java.security.sasl -->
<g id="node19" class="node"><title>java.security.sasl</title>
<text text-anchor="middle" x="1875" y="-269.4" font-family="DejaVuSans" font-size="12.00" fill="#e76f00">java.security.sasl</text>
</g>
<!-- java.se&#45;&gt;java.security.sasl -->
<g id="edge23" class="edge"><title>java.se&#45;&gt;java.security.sasl</title>
<path fill="none" stroke="#999999" stroke-width="2" d="M629.722,-354.625C799.591,-350.085 1562.63,-328.058 1797,-293 1799.69,-292.598 1802.42,-292.144 1805.17,-291.648"/>
<polygon fill="#999999" stroke="#999999" stroke-width="2" points="1815.19,-289.69 1806.24,-296.025 1810.38,-291.14 1805.47,-292.099 1805.38,-291.609 1805.28,-291.118 1810.19,-290.159 1804.51,-287.192 1815.19,-289.69 1815.19,-289.69"/>
</g>
<!-- java.sql.rowset -->
<g id="node20" class="node"><title>java.sql.rowset</title>
<text text-anchor="middle" x="596" y="-269.4" font-family="DejaVuSans" font-size="12.00" fill="#e76f00">java.sql.rowset</text>
</g>
<!-- java.se&#45;&gt;java.sql.rowset -->
<g id="edge21" class="edge"><title>java.se&#45;&gt;java.sql.rowset</title>
<path fill="none" stroke="#999999" stroke-width="2" d="M596,-335.65C596,-325.981 596,-314.15 596,-303.416"/>
<polygon fill="#999999" stroke="#999999" stroke-width="2" points="596,-293.167 600.5,-303.167 596.5,-298.167 596.5,-303.167 596,-303.167 595.5,-303.167 595.5,-298.167 591.5,-303.167 596,-293.167 596,-293.167"/>
</g>
<!-- java.xml.crypto -->
<g id="node21" class="node"><title>java.xml.crypto</title>
<text text-anchor="middle" x="814" y="-269.4" font-family="DejaVuSans" font-size="12.00" fill="#e76f00">java.xml.crypto</text>
</g>
<!-- java.se&#45;&gt;java.xml.crypto -->
<g id="edge19" class="edge"><title>java.se&#45;&gt;java.xml.crypto</title>
<path fill="none" stroke="#999999" stroke-width="2" d="M629.585,-342.867C662.314,-330.556 712.836,-311.553 752.729,-296.547"/>
<polygon fill="#999999" stroke="#999999" stroke-width="2" points="762.104,-293.021 754.328,-300.753 757.6,-295.249 752.92,-297.009 752.744,-296.541 752.568,-296.073 757.248,-294.313 751.16,-292.329 762.104,-293.021 762.104,-293.021"/>
</g>
<!-- java.security.jgss&#45;&gt;java.base -->
<g id="edge26" class="edge"><title>java.security.jgss&#45;&gt;java.base</title>
<path fill="none" stroke="#999999" stroke-width="2" d="M1721.38,-251.997C1722.95,-212.991 1720.21,-125.557 1669,-84 1588.97,-19.06 847.974,-19.6579 646.409,-21.041"/>
<polygon fill="#999999" stroke="#999999" stroke-width="2" points="636.115,-21.1156 646.082,-16.5431 641.111,-20.5793 646.111,-20.543 646.114,-21.043 646.118,-21.543 641.118,-21.5793 646.147,-25.5429 636.115,-21.1156 636.115,-21.1156"/>
</g>
<!-- java.security.sasl&#45;&gt;java.base -->
<g id="edge27" class="edge"><title>java.security.sasl&#45;&gt;java.base</title>
<path fill="none" stroke="#999999" stroke-width="2" d="M1865.11,-251.868C1843.71,-211.812 1788.86,-121.306 1713,-84 1616.53,-36.5566 851.454,-24.4283 646.41,-22.0165"/>
<polygon fill="#999999" stroke="#999999" stroke-width="2" points="636.229,-21.8994 646.28,-17.5148 641.234,-21.457 646.234,-21.5145 646.228,-22.0145 646.222,-22.5145 641.223,-22.4569 646.176,-26.5142 636.229,-21.8994 636.229,-21.8994"/>
</g>
<!-- java.sql.rowset&#45;&gt;java.sql -->
<g id="edge31" class="edge"><title>java.sql.rowset&#45;&gt;java.sql</title>
<path fill="none" stroke="#999999" stroke-width="2" d="M596,-251.65C596,-241.981 596,-230.15 596,-219.416"/>
<polygon fill="#999999" stroke="#999999" stroke-width="2" points="596,-209.167 600.5,-219.167 596.5,-214.167 596.5,-219.167 596,-219.167 595.5,-219.167 595.5,-214.167 591.5,-219.167 596,-209.167 596,-209.167"/>
</g>
<!-- java.sql.rowset&#45;&gt;java.naming -->
<g id="edge32" class="edge"><title>java.sql.rowset&#45;&gt;java.naming</title>
<path fill="none" stroke="#999999" stroke-width="2" d="M541.857,-255.129C437.582,-223.6 209.83,-154.735 103.627,-122.622"/>
<polygon fill="#999999" stroke="#999999" stroke-width="2" points="94.0434,-119.724 104.918,-118.311 98.9741,-120.693 103.76,-122.14 103.615,-122.619 103.471,-123.097 98.6847,-121.65 102.313,-126.926 94.0434,-119.724 94.0434,-119.724"/>
</g>
<!-- java.xml.crypto&#45;&gt;java.xml -->
<g id="edge35" class="edge"><title>java.xml.crypto&#45;&gt;java.xml</title>
<path fill="none" stroke="#999999" stroke-width="2" d="M798.236,-251.764C779.742,-229.483 747.347,-193.08 714,-168 691.773,-151.283 664.464,-136.508 641.717,-125.526"/>
<polygon fill="#999999" stroke="#999999" stroke-width="2" points="632.6,-121.208 643.564,-121.422 637.333,-122.897 641.852,-125.037 641.637,-125.489 641.423,-125.941 636.905,-123.8 639.711,-129.556 632.6,-121.208 632.6,-121.208"/>
</g>
</g>
</svg>
