<?xml version="1.0" encoding="UTF-8" standalone="no"?>
<!DOCTYPE svg PUBLIC "-//W3C//DTD SVG 1.1//EN"
 "http://www.w3.org/Graphics/SVG/1.1/DTD/svg11.dtd">
<!-- Generated by graphviz version 2.38.0 (20140413.2041)
 -->
<!-- Title: jdk.javadoc Pages: 1 -->
<svg width="108pt" height="301pt"
 viewBox="0.00 0.00 108.00 301.00" xmlns="http://www.w3.org/2000/svg" xmlns:xlink="http://www.w3.org/1999/xlink">
<g id="graph0" class="graph" transform="scale(1 1) rotate(0) translate(4 297)">
<title>jdk.javadoc</title>
<polygon fill="white" stroke="none" points="-4,4 -4,-297 104,-297 104,4 -4,4"/>
<!-- java.compiler -->
<g id="node1" class="node"><title>java.compiler</title>
<text text-anchor="middle" x="50" y="-101.4" font-family="DejaVuSans" font-size="12.00" fill="#e76f00">java.compiler</text>
</g>
<!-- java.base -->
<g id="node2" class="node"><title>java.base</title>
<text text-anchor="middle" x="50" y="-17.4" font-family="DejaVuSans" font-size="12.00" fill="#e76f00">java.base</text>
</g>
<!-- java.compiler&#45;&gt;java.base -->
<g id="edge1" class="edge"><title>java.compiler&#45;&gt;java.base</title>
<path fill="none" stroke="#999999" stroke-width="2" d="M50,-83.6501C50,-73.9808 50,-62.1502 50,-51.4157"/>
<polygon fill="#999999" stroke="#999999" stroke-width="2" points="50,-41.1671 54.5001,-51.1671 50.5,-46.1671 50.5001,-51.1671 50.0001,-51.1671 49.5001,-51.1671 49.5,-46.1671 45.5001,-51.1672 50,-41.1671 50,-41.1671"/>
</g>
<!-- jdk.compiler -->
<g id="node3" class="node"><title>jdk.compiler</title>
<text text-anchor="middle" x="50" y="-185.4" font-family="DejaVuSans" font-size="12.00" fill="#437291">jdk.compiler</text>
</g>
<!-- jdk.compiler&#45;&gt;java.compiler -->
<g id="edge2" class="edge"><title>jdk.compiler&#45;&gt;java.compiler</title>
<path fill="none" stroke="#999999" stroke-width="2" d="M50,-167.65C50,-157.981 50,-146.15 50,-135.416"/>
<polygon fill="#999999" stroke="#999999" stroke-width="2" points="50,-125.167 54.5001,-135.167 50.5,-130.167 50.5001,-135.167 50.0001,-135.167 49.5001,-135.167 49.5,-130.167 45.5001,-135.167 50,-125.167 50,-125.167"/>
</g>
<!-- jdk.javadoc -->
<g id="node4" class="node"><title>jdk.javadoc</title>
<text text-anchor="middle" x="50" y="-269.4" font-family="DejaVuSans" font-size="12.00" fill="#437291">jdk.javadoc</text>
</g>
<!-- jdk.javadoc&#45;&gt;jdk.compiler -->
<g id="edge3" class="edge"><title>jdk.javadoc&#45;&gt;jdk.compiler</title>
<path fill="none" stroke="#999999" stroke-width="2" d="M50,-251.65C50,-241.981 50,-230.15 50,-219.416"/>
<polygon fill="#999999" stroke="#999999" stroke-width="2" points="50,-209.167 54.5001,-219.167 50.5,-214.167 50.5001,-219.167 50.0001,-219.167 49.5001,-219.167 49.5,-214.167 45.5001,-219.167 50,-209.167 50,-209.167"/>
</g>
</g>
</svg>
