<?xml version="1.0" encoding="UTF-8" standalone="no"?>
<!DOCTYPE svg PUBLIC "-//W3C//DTD SVG 1.1//EN"
 "http://www.w3.org/Graphics/SVG/1.1/DTD/svg11.dtd">
<!-- Generated by graphviz version 2.38.0 (20140413.2041)
 -->
<!-- Title: java.management.rmi Pages: 1 -->
<svg width="240pt" height="217pt"
 viewBox="0.00 0.00 239.50 217.00" xmlns="http://www.w3.org/2000/svg" xmlns:xlink="http://www.w3.org/1999/xlink">
<g id="graph0" class="graph" transform="scale(1 1) rotate(0) translate(4 213)">
<title>java.management.rmi</title>
<polygon fill="white" stroke="none" points="-4,4 -4,-213 235.5,-213 235.5,4 -4,4"/>
<!-- java.management -->
<g id="node1" class="node"><title>java.management</title>
<text text-anchor="middle" x="62" y="-101.4" font-family="DejaVuSans" font-size="12.00" fill="#e76f00">java.management</text>
</g>
<!-- java.base -->
<g id="node2" class="node"><title>java.base</title>
<text text-anchor="middle" x="129" y="-17.4" font-family="DejaVuSans" font-size="12.00" fill="#e76f00">java.base</text>
</g>
<!-- java.management&#45;&gt;java.base -->
<g id="edge1" class="edge"><title>java.management&#45;&gt;java.base</title>
<path fill="none" stroke="#999999" stroke-width="2" d="M78.2188,-83.6501C86.6955,-73.2757 97.2049,-60.4134 106.46,-49.0862"/>
<polygon fill="#999999" stroke="#999999" stroke-width="2" points="112.931,-41.1671 110.088,-51.7582 110.154,-45.3554 106.99,-49.2273 106.603,-48.9109 106.216,-48.5946 109.38,-44.7227 103.119,-46.0636 112.931,-41.1671 112.931,-41.1671"/>
</g>
<!-- java.management.rmi -->
<g id="node3" class="node"><title>java.management.rmi</title>
<text text-anchor="middle" x="129" y="-185.4" font-family="DejaVuSans" font-size="12.00" fill="#e76f00">java.management.rmi</text>
</g>
<!-- java.management.rmi&#45;&gt;java.management -->
<g id="edge3" class="edge"><title>java.management.rmi&#45;&gt;java.management</title>
<path fill="none" stroke="#999999" stroke-width="2" d="M112.781,-167.65C104.305,-157.276 93.7951,-144.413 84.54,-133.086"/>
<polygon fill="#999999" stroke="#999999" stroke-width="2" points="78.0695,-125.167 87.8815,-130.064 81.6203,-128.723 84.7839,-132.595 84.3967,-132.911 84.0096,-133.227 80.8459,-129.355 80.912,-135.758 78.0695,-125.167 78.0695,-125.167"/>
</g>
<!-- java.rmi -->
<g id="node4" class="node"><title>java.rmi</title>
<text text-anchor="middle" x="196" y="-101.4" font-family="DejaVuSans" font-size="12.00" fill="#e76f00">java.rmi</text>
</g>
<!-- java.management.rmi&#45;&gt;java.rmi -->
<g id="edge2" class="edge"><title>java.management.rmi&#45;&gt;java.rmi</title>
<path fill="none" stroke="#999999" stroke-width="2" d="M145.219,-167.65C153.695,-157.276 164.205,-144.413 173.46,-133.086"/>
<polygon fill="#999999" stroke="#999999" stroke-width="2" points="179.931,-125.167 177.088,-135.758 177.154,-129.355 173.99,-133.227 173.603,-132.911 173.216,-132.595 176.38,-128.723 170.119,-130.064 179.931,-125.167 179.931,-125.167"/>
</g>
<!-- java.rmi&#45;&gt;java.base -->
<g id="edge4" class="edge"><title>java.rmi&#45;&gt;java.base</title>
<path fill="none" stroke="#999999" stroke-width="2" d="M179.781,-83.6501C171.305,-73.2757 160.795,-60.4134 151.54,-49.0862"/>
<polygon fill="#999999" stroke="#999999" stroke-width="2" points="145.069,-41.1671 154.881,-46.0636 148.62,-44.7227 151.784,-48.5946 151.397,-48.9109 151.01,-49.2273 147.846,-45.3554 147.912,-51.7582 145.069,-41.1671 145.069,-41.1671"/>
</g>
</g>
</svg>
