<?xml version="1.0" encoding="UTF-8" standalone="no"?>
<!DOCTYPE svg PUBLIC "-//W3C//DTD SVG 1.1//EN"
 "http://www.w3.org/Graphics/SVG/1.1/DTD/svg11.dtd">
<!-- Generated by graphviz version 2.38.0 (20140413.2041)
 -->
<!-- Title: jdk.jshell Pages: 1 -->
<svg width="328pt" height="217pt"
 viewBox="0.00 0.00 328.00 217.00" xmlns="http://www.w3.org/2000/svg" xmlns:xlink="http://www.w3.org/1999/xlink">
<g id="graph0" class="graph" transform="scale(1 1) rotate(0) translate(4 213)">
<title>jdk.jshell</title>
<polygon fill="white" stroke="none" points="-4,4 -4,-213 324,-213 324,4 -4,4"/>
<!-- java.compiler -->
<g id="node1" class="node"><title>java.compiler</title>
<text text-anchor="middle" x="50" y="-101.4" font-family="DejaVuSans" font-size="12.00" fill="#e76f00">java.compiler</text>
</g>
<!-- java.base -->
<g id="node2" class="node"><title>java.base</title>
<text text-anchor="middle" x="176" y="-17.4" font-family="DejaVuSans" font-size="12.00" fill="#e76f00">java.base</text>
</g>
<!-- java.compiler&#45;&gt;java.base -->
<g id="edge1" class="edge"><title>java.compiler&#45;&gt;java.base</title>
<path fill="none" stroke="#999999" stroke-width="2" d="M80.1801,-83.859C97.1982,-72.7837 118.649,-58.8235 136.938,-46.9211"/>
<polygon fill="#999999" stroke="#999999" stroke-width="2" points="145.629,-41.265 139.703,-50.4912 141.711,-44.4113 137.521,-47.1387 137.248,-46.7196 136.975,-46.3005 141.166,-43.5732 134.793,-42.9479 145.629,-41.265 145.629,-41.265"/>
</g>
<!-- java.prefs -->
<g id="node3" class="node"><title>java.prefs</title>
<text text-anchor="middle" x="176" y="-101.4" font-family="DejaVuSans" font-size="12.00" fill="#e76f00">java.prefs</text>
</g>
<!-- java.prefs&#45;&gt;java.base -->
<g id="edge2" class="edge"><title>java.prefs&#45;&gt;java.base</title>
<path fill="none" stroke="#999999" stroke-width="2" d="M176,-83.6501C176,-73.9808 176,-62.1502 176,-51.4157"/>
<polygon fill="#999999" stroke="#999999" stroke-width="2" points="176,-41.1671 180.5,-51.1671 176.5,-46.1671 176.5,-51.1671 176,-51.1671 175.5,-51.1671 175.5,-46.1671 171.5,-51.1672 176,-41.1671 176,-41.1671"/>
</g>
<!-- jdk.jdi -->
<g id="node4" class="node"><title>jdk.jdi</title>
<text text-anchor="middle" x="282" y="-101.4" font-family="DejaVuSans" font-size="12.00" fill="#437291">jdk.jdi</text>
</g>
<!-- jdk.jdi&#45;&gt;java.base -->
<g id="edge3" class="edge"><title>jdk.jdi&#45;&gt;java.base</title>
<path fill="none" stroke="#999999" stroke-width="2" d="M256.61,-83.859C242.554,-72.9851 224.902,-59.3302 209.703,-47.5723"/>
<polygon fill="#999999" stroke="#999999" stroke-width="2" points="201.55,-41.265 212.213,-43.8244 205.811,-43.9289 209.765,-46.9883 209.459,-47.3837 209.153,-47.7792 205.199,-44.7198 206.706,-50.9431 201.55,-41.265 201.55,-41.265"/>
</g>
<!-- jdk.jshell -->
<g id="node5" class="node"><title>jdk.jshell</title>
<text text-anchor="middle" x="282" y="-185.4" font-family="DejaVuSans" font-size="12.00" fill="#437291">jdk.jshell</text>
</g>
<!-- jdk.jshell&#45;&gt;java.compiler -->
<g id="edge5" class="edge"><title>jdk.jshell&#45;&gt;java.compiler</title>
<path fill="none" stroke="#999999" stroke-width="2" d="M243.95,-174.051C207.575,-161.195 152.168,-141.611 109.875,-126.663"/>
<polygon fill="#999999" stroke="#999999" stroke-width="2" points="100.246,-123.259 111.174,-122.349 105.127,-124.454 109.841,-126.121 109.675,-126.592 109.508,-127.063 104.794,-125.397 108.175,-130.835 100.246,-123.259 100.246,-123.259"/>
</g>
<!-- jdk.jshell&#45;&gt;java.prefs -->
<g id="edge6" class="edge"><title>jdk.jshell&#45;&gt;java.prefs</title>
<path fill="none" stroke="#999999" stroke-width="2" d="M256.61,-167.859C242.554,-156.985 224.902,-143.33 209.703,-131.572"/>
<polygon fill="#999999" stroke="#999999" stroke-width="2" points="201.55,-125.265 212.213,-127.824 205.811,-127.929 209.765,-130.988 209.459,-131.384 209.153,-131.779 205.199,-128.72 206.706,-134.943 201.55,-125.265 201.55,-125.265"/>
</g>
<!-- jdk.jshell&#45;&gt;jdk.jdi -->
<g id="edge4" class="edge"><title>jdk.jshell&#45;&gt;jdk.jdi</title>
<path fill="none" stroke="#999999" stroke-width="2" d="M282,-167.65C282,-157.981 282,-146.15 282,-135.416"/>
<polygon fill="#999999" stroke="#999999" stroke-width="2" points="282,-125.167 286.5,-135.167 282.5,-130.167 282.5,-135.167 282,-135.167 281.5,-135.167 281.5,-130.167 277.5,-135.167 282,-125.167 282,-125.167"/>
</g>
</g>
</svg>
