<?xml version="1.0" encoding="UTF-8" standalone="no"?>
<!DOCTYPE svg PUBLIC "-//W3C//DTD SVG 1.1//EN"
 "http://www.w3.org/Graphics/SVG/1.1/DTD/svg11.dtd">
<!-- Generated by graphviz version 2.38.0 (20140413.2041)
 -->
<!-- Title: jdk.management.jfr Pages: 1 -->
<svg width="262pt" height="217pt"
 viewBox="0.00 0.00 262.00 217.00" xmlns="http://www.w3.org/2000/svg" xmlns:xlink="http://www.w3.org/1999/xlink">
<g id="graph0" class="graph" transform="scale(1 1) rotate(0) translate(4 213)">
<title>jdk.management.jfr</title>
<polygon fill="white" stroke="none" points="-4,4 -4,-213 258,-213 258,4 -4,4"/>
<!-- java.management -->
<g id="node1" class="node"><title>java.management</title>
<text text-anchor="middle" x="62" y="-101.4" font-family="DejaVuSans" font-size="12.00" fill="#e76f00">java.management</text>
</g>
<!-- java.base -->
<g id="node2" class="node"><title>java.base</title>
<text text-anchor="middle" x="62" y="-17.4" font-family="DejaVuSans" font-size="12.00" fill="#e76f00">java.base</text>
</g>
<!-- java.management&#45;&gt;java.base -->
<g id="edge1" class="edge"><title>java.management&#45;&gt;java.base</title>
<path fill="none" stroke="#999999" stroke-width="2" d="M62,-83.6501C62,-73.9808 62,-62.1502 62,-51.4157"/>
<polygon fill="#999999" stroke="#999999" stroke-width="2" points="62,-41.1671 66.5001,-51.1671 62.5,-46.1671 62.5001,-51.1671 62.0001,-51.1671 61.5001,-51.1671 61.5,-46.1671 57.5001,-51.1672 62,-41.1671 62,-41.1671"/>
</g>
<!-- jdk.jfr -->
<g id="node3" class="node"><title>jdk.jfr</title>
<text text-anchor="middle" x="189" y="-101.4" font-family="DejaVuSans" font-size="12.00" fill="#437291">jdk.jfr</text>
</g>
<!-- jdk.jfr&#45;&gt;java.base -->
<g id="edge2" class="edge"><title>jdk.jfr&#45;&gt;java.base</title>
<path fill="none" stroke="#999999" stroke-width="2" d="M160.499,-85.0976C142.995,-73.7959 120.331,-59.1628 101.157,-46.7827"/>
<polygon fill="#999999" stroke="#999999" stroke-width="2" points="92.6243,-41.2731 103.466,-42.917 97.096,-43.5653 101.297,-46.2774 101.025,-46.6975 100.754,-47.1175 96.5536,-44.4054 98.5843,-50.4779 92.6243,-41.2731 92.6243,-41.2731"/>
</g>
<!-- jdk.management.jfr -->
<g id="node4" class="node"><title>jdk.management.jfr</title>
<text text-anchor="middle" x="189" y="-185.4" font-family="DejaVuSans" font-size="12.00" fill="#437291">jdk.management.jfr</text>
</g>
<!-- jdk.management.jfr&#45;&gt;java.management -->
<g id="edge3" class="edge"><title>jdk.management.jfr&#45;&gt;java.management</title>
<path fill="none" stroke="#999999" stroke-width="2" d="M158.58,-167.859C141.349,-156.733 119.609,-142.697 101.12,-130.759"/>
<polygon fill="#999999" stroke="#999999" stroke-width="2" points="92.6116,-125.265 103.454,-126.909 97.0833,-127.557 101.284,-130.269 101.013,-130.689 100.741,-131.109 96.5409,-128.397 98.5717,-134.47 92.6116,-125.265 92.6116,-125.265"/>
</g>
<!-- jdk.management.jfr&#45;&gt;jdk.jfr -->
<g id="edge4" class="edge"><title>jdk.management.jfr&#45;&gt;jdk.jfr</title>
<path fill="none" stroke="#999999" stroke-width="2" d="M189,-167.65C189,-157.981 189,-146.15 189,-135.416"/>
<polygon fill="#999999" stroke="#999999" stroke-width="2" points="189,-125.167 193.5,-135.167 189.5,-130.167 189.5,-135.167 189,-135.167 188.5,-135.167 188.5,-130.167 184.5,-135.167 189,-125.167 189,-125.167"/>
</g>
</g>
</svg>
