<?xml version="1.0" encoding="UTF-8" standalone="no"?>
<!DOCTYPE svg PUBLIC "-//W3C//DTD SVG 1.1//EN"
 "http://www.w3.org/Graphics/SVG/1.1/DTD/svg11.dtd">
<!-- Generated by graphviz version 2.38.0 (20140413.2041)
 -->
<!-- Title: jdk.jconsole Pages: 1 -->
<svg width="355pt" height="301pt"
 viewBox="0.00 0.00 355.00 301.00" xmlns="http://www.w3.org/2000/svg" xmlns:xlink="http://www.w3.org/1999/xlink">
<g id="graph0" class="graph" transform="scale(1 1) rotate(0) translate(4 297)">
<title>jdk.jconsole</title>
<polygon fill="white" stroke="none" points="-4,4 -4,-297 351,-297 351,4 -4,4"/>
<!-- java.xml -->
<g id="node1" class="node"><title>java.xml</title>
<text text-anchor="middle" x="40" y="-101.4" font-family="DejaVuSans" font-size="12.00" fill="#e76f00">java.xml</text>
</g>
<!-- java.base -->
<g id="node4" class="node"><title>java.base</title>
<text text-anchor="middle" x="40" y="-17.4" font-family="DejaVuSans" font-size="12.00" fill="#e76f00">java.base</text>
</g>
<!-- java.xml&#45;&gt;java.base -->
<g id="edge5" class="edge"><title>java.xml&#45;&gt;java.base</title>
<path fill="none" stroke="#999999" stroke-width="2" d="M40,-83.6501C40,-73.9808 40,-62.1502 40,-51.4157"/>
<polygon fill="#999999" stroke="#999999" stroke-width="2" points="40,-41.1671 44.5001,-51.1671 40.5,-46.1671 40.5001,-51.1671 40.0001,-51.1671 39.5001,-51.1671 39.5,-46.1671 35.5001,-51.1672 40,-41.1671 40,-41.1671"/>
</g>
<!-- java.desktop -->
<g id="node2" class="node"><title>java.desktop</title>
<text text-anchor="middle" x="139" y="-185.4" font-family="DejaVuSans" font-size="12.00" fill="#e76f00">java.desktop</text>
</g>
<!-- java.desktop&#45;&gt;java.xml -->
<g id="edge2" class="edge"><title>java.desktop&#45;&gt;java.xml</title>
<path fill="none" stroke="#999999" stroke-width="2" d="M115.287,-167.859C102.28,-157.086 85.9781,-143.583 71.8724,-131.899"/>
<polygon fill="#999999" stroke="#999999" stroke-width="2" points="63.8626,-125.265 74.4344,-128.178 68.0322,-128.069 71.8829,-131.259 71.5639,-131.644 71.245,-132.029 67.3943,-128.839 68.6934,-135.109 63.8626,-125.265 63.8626,-125.265"/>
</g>
<!-- java.datatransfer -->
<g id="node5" class="node"><title>java.datatransfer</title>
<text text-anchor="middle" x="171" y="-101.4" font-family="DejaVuSans" font-size="12.00" fill="#e76f00">java.datatransfer</text>
</g>
<!-- java.desktop&#45;&gt;java.datatransfer -->
<g id="edge3" class="edge"><title>java.desktop&#45;&gt;java.datatransfer</title>
<path fill="none" stroke="#999999" stroke-width="2" d="M146.746,-167.65C150.598,-157.779 155.329,-145.656 159.587,-134.746"/>
<polygon fill="#999999" stroke="#999999" stroke-width="2" points="163.325,-125.167 163.882,-136.119 161.973,-130.007 160.155,-134.665 159.69,-134.483 159.224,-134.301 161.041,-129.643 155.497,-132.847 163.325,-125.167 163.325,-125.167"/>
</g>
<!-- java.management -->
<g id="node3" class="node"><title>java.management</title>
<text text-anchor="middle" x="285" y="-185.4" font-family="DejaVuSans" font-size="12.00" fill="#e76f00">java.management</text>
</g>
<!-- java.management&#45;&gt;java.base -->
<g id="edge4" class="edge"><title>java.management&#45;&gt;java.base</title>
<path fill="none" stroke="#999999" stroke-width="2" d="M283.242,-167.87C280.119,-144.652 271.521,-106.341 248,-84 205.173,-43.3208 136.874,-29.0235 90.3134,-24.0531"/>
<polygon fill="#999999" stroke="#999999" stroke-width="2" points="80.1427,-23.0781 90.5266,-19.553 85.1676,-23.0576 90.1448,-23.5348 90.0971,-24.0325 90.0494,-24.5302 85.0722,-24.053 89.6676,-28.5119 80.1427,-23.0781 80.1427,-23.0781"/>
</g>
<!-- java.datatransfer&#45;&gt;java.base -->
<g id="edge1" class="edge"><title>java.datatransfer&#45;&gt;java.base</title>
<path fill="none" stroke="#999999" stroke-width="2" d="M139.622,-83.859C121.768,-72.683 99.2207,-58.5695 80.0939,-46.597"/>
<polygon fill="#999999" stroke="#999999" stroke-width="2" points="71.5758,-41.265 82.4398,-42.7565 76.0792,-43.4941 80.3174,-46.147 80.0521,-46.5708 79.7868,-46.9946 75.5486,-44.3417 77.6645,-50.3852 71.5758,-41.265 71.5758,-41.265"/>
</g>
<!-- jdk.jconsole -->
<g id="node6" class="node"><title>jdk.jconsole</title>
<text text-anchor="middle" x="212" y="-269.4" font-family="DejaVuSans" font-size="12.00" fill="#437291">jdk.jconsole</text>
</g>
<!-- jdk.jconsole&#45;&gt;java.desktop -->
<g id="edge6" class="edge"><title>jdk.jconsole&#45;&gt;java.desktop</title>
<path fill="none" stroke="#999999" stroke-width="2" d="M194.329,-251.65C185.003,-241.175 173.42,-228.163 163.265,-216.757"/>
<polygon fill="#999999" stroke="#999999" stroke-width="2" points="156.509,-209.167 166.519,-213.644 160.207,-212.569 163.531,-216.304 163.158,-216.636 162.784,-216.969 159.46,-213.234 159.797,-219.628 156.509,-209.167 156.509,-209.167"/>
</g>
<!-- jdk.jconsole&#45;&gt;java.management -->
<g id="edge7" class="edge"><title>jdk.jconsole&#45;&gt;java.management</title>
<path fill="none" stroke="#999999" stroke-width="2" d="M229.671,-251.65C238.997,-241.175 250.58,-228.163 260.735,-216.757"/>
<polygon fill="#999999" stroke="#999999" stroke-width="2" points="267.491,-209.167 264.203,-219.628 264.54,-213.234 261.216,-216.969 260.842,-216.636 260.469,-216.304 263.793,-212.569 257.481,-213.644 267.491,-209.167 267.491,-209.167"/>
</g>
</g>
</svg>
