<?xml version="1.0" encoding="UTF-8" standalone="no"?>
<!DOCTYPE svg PUBLIC "-//W3C//DTD SVG 1.1//EN"
 "http://www.w3.org/Graphics/SVG/1.1/DTD/svg11.dtd">
<!-- Generated by graphviz version 2.38.0 (20140413.2041)
 -->
<!-- Title: jdk.accessibility Pages: 1 -->
<svg width="238pt" height="301pt"
 viewBox="0.00 0.00 237.50 301.00" xmlns="http://www.w3.org/2000/svg" xmlns:xlink="http://www.w3.org/1999/xlink">
<g id="graph0" class="graph" transform="scale(1 1) rotate(0) translate(4 297)">
<title>jdk.accessibility</title>
<polygon fill="white" stroke="none" points="-4,4 -4,-297 233.5,-297 233.5,4 -4,4"/>
<!-- java.xml -->
<g id="node1" class="node"><title>java.xml</title>
<text text-anchor="middle" x="40" y="-101.4" font-family="DejaVuSans" font-size="12.00" fill="#e76f00">java.xml</text>
</g>
<!-- java.base -->
<g id="node3" class="node"><title>java.base</title>
<text text-anchor="middle" x="40" y="-17.4" font-family="DejaVuSans" font-size="12.00" fill="#e76f00">java.base</text>
</g>
<!-- java.xml&#45;&gt;java.base -->
<g id="edge4" class="edge"><title>java.xml&#45;&gt;java.base</title>
<path fill="none" stroke="#999999" stroke-width="2" d="M40,-83.6501C40,-73.9808 40,-62.1502 40,-51.4157"/>
<polygon fill="#999999" stroke="#999999" stroke-width="2" points="40,-41.1671 44.5001,-51.1671 40.5,-46.1671 40.5001,-51.1671 40.0001,-51.1671 39.5001,-51.1671 39.5,-46.1671 35.5001,-51.1672 40,-41.1671 40,-41.1671"/>
</g>
<!-- java.desktop -->
<g id="node2" class="node"><title>java.desktop</title>
<text text-anchor="middle" x="105" y="-185.4" font-family="DejaVuSans" font-size="12.00" fill="#e76f00">java.desktop</text>
</g>
<!-- java.desktop&#45;&gt;java.xml -->
<g id="edge2" class="edge"><title>java.desktop&#45;&gt;java.xml</title>
<path fill="none" stroke="#999999" stroke-width="2" d="M89.2653,-167.65C81.0417,-157.276 70.846,-144.413 61.8671,-133.086"/>
<polygon fill="#999999" stroke="#999999" stroke-width="2" points="55.5898,-125.167 65.3282,-130.208 59.0876,-128.775 62.1936,-132.693 61.8017,-133.004 61.4099,-133.314 58.3039,-129.396 58.2753,-135.799 55.5898,-125.167 55.5898,-125.167"/>
</g>
<!-- java.datatransfer -->
<g id="node4" class="node"><title>java.datatransfer</title>
<text text-anchor="middle" x="171" y="-101.4" font-family="DejaVuSans" font-size="12.00" fill="#e76f00">java.datatransfer</text>
</g>
<!-- java.desktop&#45;&gt;java.datatransfer -->
<g id="edge3" class="edge"><title>java.desktop&#45;&gt;java.datatransfer</title>
<path fill="none" stroke="#999999" stroke-width="2" d="M120.977,-167.65C129.327,-157.276 139.679,-144.413 148.796,-133.086"/>
<polygon fill="#999999" stroke="#999999" stroke-width="2" points="155.17,-125.167 152.406,-135.779 152.425,-129.376 149.29,-133.271 148.9,-132.957 148.511,-132.644 151.646,-128.749 145.395,-130.136 155.17,-125.167 155.17,-125.167"/>
</g>
<!-- java.datatransfer&#45;&gt;java.base -->
<g id="edge1" class="edge"><title>java.datatransfer&#45;&gt;java.base</title>
<path fill="none" stroke="#999999" stroke-width="2" d="M139.622,-83.859C121.768,-72.683 99.2207,-58.5695 80.0939,-46.597"/>
<polygon fill="#999999" stroke="#999999" stroke-width="2" points="71.5758,-41.265 82.4398,-42.7565 76.0792,-43.4941 80.3174,-46.147 80.0521,-46.5708 79.7868,-46.9946 75.5486,-44.3417 77.6645,-50.3852 71.5758,-41.265 71.5758,-41.265"/>
</g>
<!-- jdk.accessibility -->
<g id="node5" class="node"><title>jdk.accessibility</title>
<text text-anchor="middle" x="105" y="-269.4" font-family="DejaVuSans" font-size="12.00" fill="#437291">jdk.accessibility</text>
</g>
<!-- jdk.accessibility&#45;&gt;java.desktop -->
<g id="edge5" class="edge"><title>jdk.accessibility&#45;&gt;java.desktop</title>
<path fill="none" stroke="#999999" stroke-width="2" d="M105,-251.65C105,-241.981 105,-230.15 105,-219.416"/>
<polygon fill="#999999" stroke="#999999" stroke-width="2" points="105,-209.167 109.5,-219.167 105.5,-214.167 105.5,-219.167 105,-219.167 104.5,-219.167 104.5,-214.167 100.5,-219.167 105,-209.167 105,-209.167"/>
</g>
</g>
</svg>
