<?xml version="1.0" encoding="UTF-8" standalone="no"?>
<!DOCTYPE svg PUBLIC "-//W3C//DTD SVG 1.1//EN"
 "http://www.w3.org/Graphics/SVG/1.1/DTD/svg11.dtd">
<!-- Generated by graphviz version 2.38.0 (20140413.2041)
 -->
<!-- Title: jdk.xml.dom Pages: 1 -->
<svg width="100pt" height="217pt"
 viewBox="0.00 0.00 100.00 217.00" xmlns="http://www.w3.org/2000/svg" xmlns:xlink="http://www.w3.org/1999/xlink">
<g id="graph0" class="graph" transform="scale(1 1) rotate(0) translate(4 213)">
<title>jdk.xml.dom</title>
<polygon fill="white" stroke="none" points="-4,4 -4,-213 96,-213 96,4 -4,4"/>
<!-- java.xml -->
<g id="node1" class="node"><title>java.xml</title>
<text text-anchor="middle" x="46" y="-101.4" font-family="DejaVuSans" font-size="12.00" fill="#e76f00">java.xml</text>
</g>
<!-- java.base -->
<g id="node2" class="node"><title>java.base</title>
<text text-anchor="middle" x="46" y="-17.4" font-family="DejaVuSans" font-size="12.00" fill="#e76f00">java.base</text>
</g>
<!-- java.xml&#45;&gt;java.base -->
<g id="edge1" class="edge"><title>java.xml&#45;&gt;java.base</title>
<path fill="none" stroke="#999999" stroke-width="2" d="M46,-83.6501C46,-73.9808 46,-62.1502 46,-51.4157"/>
<polygon fill="#999999" stroke="#999999" stroke-width="2" points="46,-41.1671 50.5001,-51.1671 46.5,-46.1671 46.5001,-51.1671 46.0001,-51.1671 45.5001,-51.1671 45.5,-46.1671 41.5001,-51.1672 46,-41.1671 46,-41.1671"/>
</g>
<!-- jdk.xml.dom -->
<g id="node3" class="node"><title>jdk.xml.dom</title>
<text text-anchor="middle" x="46" y="-185.4" font-family="DejaVuSans" font-size="12.00" fill="#437291">jdk.xml.dom</text>
</g>
<!-- jdk.xml.dom&#45;&gt;java.xml -->
<g id="edge2" class="edge"><title>jdk.xml.dom&#45;&gt;java.xml</title>
<path fill="none" stroke="#999999" stroke-width="2" d="M46,-167.65C46,-157.981 46,-146.15 46,-135.416"/>
<polygon fill="#999999" stroke="#999999" stroke-width="2" points="46,-125.167 50.5001,-135.167 46.5,-130.167 46.5001,-135.167 46.0001,-135.167 45.5001,-135.167 45.5,-130.167 41.5001,-135.167 46,-125.167 46,-125.167"/>
</g>
</g>
</svg>
