<?xml version="1.0" encoding="UTF-8" standalone="no"?>
<!DOCTYPE svg PUBLIC "-//W3C//DTD SVG 1.1//EN"
 "http://www.w3.org/Graphics/SVG/1.1/DTD/svg11.dtd">
<!-- Generated by graphviz version 2.38.0 (20140413.2041)
 -->
<!-- Title: java.sql Pages: 1 -->
<svg width="376pt" height="217pt"
 viewBox="0.00 0.00 376.00 217.00" xmlns="http://www.w3.org/2000/svg" xmlns:xlink="http://www.w3.org/1999/xlink">
<g id="graph0" class="graph" transform="scale(1 1) rotate(0) translate(4 213)">
<title>java.sql</title>
<polygon fill="white" stroke="none" points="-4,4 -4,-213 372,-213 372,4 -4,4"/>
<!-- java.logging -->
<g id="node1" class="node"><title>java.logging</title>
<text text-anchor="middle" x="47" y="-101.4" font-family="DejaVuSans" font-size="12.00" fill="#e76f00">java.logging</text>
</g>
<!-- java.base -->
<g id="node5" class="node"><title>java.base</title>
<text text-anchor="middle" x="167" y="-17.4" font-family="DejaVuSans" font-size="12.00" fill="#e76f00">java.base</text>
</g>
<!-- java.logging&#45;&gt;java.base -->
<g id="edge1" class="edge"><title>java.logging&#45;&gt;java.base</title>
<path fill="none" stroke="#999999" stroke-width="2" d="M75.743,-83.859C91.9507,-72.7837 112.38,-58.8235 129.798,-46.9211"/>
<polygon fill="#999999" stroke="#999999" stroke-width="2" points="138.076,-41.265 132.358,-50.6223 134.23,-44.4988 130.101,-47.3197 129.819,-46.9069 129.537,-46.4941 133.665,-43.6731 127.28,-43.1915 138.076,-41.265 138.076,-41.265"/>
</g>
<!-- java.xml -->
<g id="node2" class="node"><title>java.xml</title>
<text text-anchor="middle" x="167" y="-101.4" font-family="DejaVuSans" font-size="12.00" fill="#e76f00">java.xml</text>
</g>
<!-- java.xml&#45;&gt;java.base -->
<g id="edge6" class="edge"><title>java.xml&#45;&gt;java.base</title>
<path fill="none" stroke="#999999" stroke-width="2" d="M167,-83.6501C167,-73.9808 167,-62.1502 167,-51.4157"/>
<polygon fill="#999999" stroke="#999999" stroke-width="2" points="167,-41.1671 171.5,-51.1671 167.5,-46.1671 167.5,-51.1671 167,-51.1671 166.5,-51.1671 166.5,-46.1671 162.5,-51.1672 167,-41.1671 167,-41.1671"/>
</g>
<!-- java.sql -->
<g id="node3" class="node"><title>java.sql</title>
<text text-anchor="middle" x="167" y="-185.4" font-family="DejaVuSans" font-size="12.00" fill="#e76f00">java.sql</text>
</g>
<!-- java.sql&#45;&gt;java.logging -->
<g id="edge2" class="edge"><title>java.sql&#45;&gt;java.logging</title>
<path fill="none" stroke="#999999" stroke-width="2" d="M138.257,-167.859C122.049,-156.784 101.62,-142.824 84.2015,-130.921"/>
<polygon fill="#999999" stroke="#999999" stroke-width="2" points="75.9244,-125.265 86.7197,-127.192 80.3347,-127.673 84.4629,-130.494 84.1808,-130.907 83.8987,-131.32 79.7705,-128.499 81.6419,-134.622 75.9244,-125.265 75.9244,-125.265"/>
</g>
<!-- java.sql&#45;&gt;java.xml -->
<g id="edge4" class="edge"><title>java.sql&#45;&gt;java.xml</title>
<path fill="none" stroke="#999999" stroke-width="2" d="M167,-167.65C167,-157.981 167,-146.15 167,-135.416"/>
<polygon fill="#999999" stroke="#999999" stroke-width="2" points="167,-125.167 171.5,-135.167 167.5,-130.167 167.5,-135.167 167,-135.167 166.5,-135.167 166.5,-130.167 162.5,-135.167 167,-125.167 167,-125.167"/>
</g>
<!-- java.transaction.xa -->
<g id="node4" class="node"><title>java.transaction.xa</title>
<text text-anchor="middle" x="304" y="-101.4" font-family="DejaVuSans" font-size="12.00" fill="#e76f00">java.transaction.xa</text>
</g>
<!-- java.sql&#45;&gt;java.transaction.xa -->
<g id="edge3" class="edge"><title>java.sql&#45;&gt;java.transaction.xa</title>
<path fill="none" stroke="#999999" stroke-width="2" d="M199.815,-167.859C218.571,-156.633 242.279,-142.442 262.34,-130.435"/>
<polygon fill="#999999" stroke="#999999" stroke-width="2" points="270.978,-125.265 264.709,-134.262 266.945,-128.262 262.654,-130.83 262.398,-130.401 262.141,-129.972 266.431,-127.404 260.086,-126.54 270.978,-125.265 270.978,-125.265"/>
</g>
<!-- java.transaction.xa&#45;&gt;java.base -->
<g id="edge5" class="edge"><title>java.transaction.xa&#45;&gt;java.base</title>
<path fill="none" stroke="#999999" stroke-width="2" d="M271.185,-83.859C252.429,-72.6327 228.721,-58.4423 208.66,-46.4353"/>
<polygon fill="#999999" stroke="#999999" stroke-width="2" points="200.022,-41.265 210.914,-42.5396 204.569,-43.4039 208.859,-45.9717 208.602,-46.4008 208.346,-46.8298 204.055,-44.2619 206.291,-50.262 200.022,-41.265 200.022,-41.265"/>
</g>
</g>
</svg>
